<svg id="Capa_1" enable-background="new 0 0 487.835 487.835" height="512" viewBox="0 0 487.835 487.835" width="512" xmlns="http://www.w3.org/2000/svg"><g id="XMLID_4143_"><g id="XMLID_173_"><g id="XMLID_3957_"><path id="XMLID_4942_" d="m112.271 11.547h35.297v136.066h-35.297z" fill="#fff" transform="matrix(.94 -.342 .342 .94 -19.383 49.234)"/><path id="XMLID_4949_" d="m110.066 21.686 15.508-5.645-2.34-6.428-33.168 12.073 46.538 127.86 17.66-6.428z" fill="#ccd6e9"/><path id="XMLID_4941_" d="m231.251 338.441h35.297v136.066h-35.297z" fill="#fff" transform="matrix(.94 -.342 .342 .94 -124.012 109.642)"/><path id="XMLID_4950_" d="m229.046 348.58 15.508-5.644-2.34-6.428-33.168 12.072 46.538 127.861 17.66-6.428z" fill="#ccd6e9"/><path id="XMLID_4940_" d="m90.066 21.685c-34.944 13.044-52.9 51.844-40.119 86.96s51.477 53.296 86.63 40.828z" fill="#c6fff6"/><path id="XMLID_4946_" d="m121.528 108.125 10.509 36.285c-38.333-5.159-56.933-25.125-63.295-42.604-6.2-17.033-1.521-45.916 26.812-65.044l-5.487-15.076c-34.944 13.044-52.9 51.844-40.119 86.96s51.477 53.296 86.63 40.828z" fill="#a4fef1"/><path id="XMLID_4939_" d="m255.584 476.441c-35.153 12.469-73.849-5.711-86.63-40.828-12.781-35.116 5.175-73.916 40.119-86.96z" fill="#c6fff6"/><path id="XMLID_4948_" d="m187.748 428.772c-6.152-16.902-2.789-44.258 28.486-60.444l-7.161-19.675c-34.944 13.044-52.9 51.844-40.119 86.96 12.563 34.515 50.157 52.647 84.819 41.419-37.228 1.156-60.025-31.776-66.025-48.26z" fill="#a4fef1"/><path id="XMLID_4938_" d="m101.723 152.304-.024-.022c-22.977-4.193-43.186-20.102-51.751-43.636-.864-2.375-1.576-4.768-2.164-7.167l-.009-.009s-22.455 72.565 18.913 186.224 105.214 154.813 105.214 154.813l.002-.013c-1.092-2.216-2.085-4.506-2.949-6.881-8.566-23.534-3.311-48.711 11.595-66.692l.004-.032c-28.336-44.126-72.174-164.569-78.831-216.585z" fill="#c6fff6"/><path id="XMLID_4947_" d="m165.596 422.439c-.369.776-.631 1.444-.761 1.978-17.719-21.155-59.844-89.963-79.353-143.563-18.978-52.141-23.846-94.768-23.863-124.718 5.725 4.229 18.933 13.884 43.728 16.285-1.633-7.441-2.869-14.222-3.624-20.117l-.024-.022c-22.977-4.193-43.186-20.102-51.751-43.635-.865-2.375-1.576-4.768-2.164-7.167l-.009-.009s-22.455 72.564 18.913 186.224c41.369 113.66 105.214 154.813 105.214 154.813l.001-.012c-1.092-2.216-2.085-4.506-2.949-6.881-1.585-4.356-2.693-8.766-3.358-13.176z" fill="#a4fef1"/></g><g id="XMLID_4405_"><circle id="XMLID_4937_" cx="354.37" cy="287.286" fill="#ffdaaa" r="91.869"/><path id="XMLID_4066_" d="m282.501 287.286c0-47.358 35.836-86.341 81.869-91.325-3.285-.355-6.62-.543-10-.543-50.738 0-91.869 41.131-91.869 91.869s41.131 91.869 91.869 91.869c3.38 0 6.715-.188 10-.543-46.033-4.986-81.869-43.969-81.869-91.327z" fill="#ffb680"/></g><path id="XMLID_4450_" d="m299.521 81.172-20.152 20.152-20.152-20.152c-11.007-11.007-28.852-11.007-39.859 0s-11.007 28.852 0 39.859l20.152 20.152 39.859 39.859 39.859-39.859 20.152-20.152c11.007-11.007 11.007-28.852 0-39.859-11.006-11.007-28.852-11.007-39.859 0z" fill="#fbb9d7"/></g><g id="XMLID_182_"><path id="XMLID_295_" d="m246.697 326.895-47.263 17.203.175.479c-6.561 3.218-12.472 7.318-17.663 12.088-25.923-45.463-61.928-144.384-71.297-195.881 1.121.05 2.244.083 3.371.083 5.949 0 11.962-.724 17.925-2.196l.178.488 47.263-17.203-51.669-141.956-33.168 12.073-.021-.058-7.061 2.636-7.014 2.553.148.406c-31.051 15.227-47.758 50.036-40.553 83.627-3.396 12.755-18.902 83.259 19.593 189.023 10.981 30.17 24.544 58.053 40.313 82.874l12.661-8.043c-15.188-23.907-28.269-50.811-38.879-79.962-20.847-57.276-24.845-103.564-24.528-132.309.111-10.103.749-18.806 1.561-25.959 10.228 15.514 26.281 26.975 44.268 31.627 8.545 53.831 48.364 163.232 76.419 209.96-6.284 8.81-10.514 18.791-12.585 29.188-1.547 7.667-1.874 15.59-.997 23.362.005.04.006.081.011.121-10.025-9.528-23.25-23.857-37.135-43.796l-12.31 8.572c26.8 38.482 51.089 57.086 57.677 61.741 13.215 24.981 39.355 40.2 66.907 40.2 5.949 0 11.962-.724 17.925-2.196l.151.416 7.07-2.574 7.046-2.499-.021-.058 33.168-12.073zm-127.945-307.668 41.407 113.765-19.073 6.941-41.189-113.168-.217-.597zm-32.985 12.575 1.419 3.898 39.596 108.788c-4.265.934-8.55 1.384-12.798 1.384-26.168 0-50.376-17.743-57.992-42.814-.044-.144-.081-.288-.124-.432-.26-.879-.505-1.772-.731-2.678-6.685-26.961 6.108-55.294 30.63-68.146zm151.965 314.319 41.407 113.766-19.073 6.941-41.407-113.766zm-59.204 92.835c-5.745-11.732-7.541-25.555-4.94-38.497 3.556-17.472 14.732-33.066 31.186-41.689l18.275 50.209 22.74 62.477c-27.045 5.916-55.049-7.56-67.261-32.5z"/><path id="XMLID_471_" d="m428.355 220.949-11.165 10.018c13.896 15.488 21.548 35.49 21.548 56.319 0 46.521-37.848 84.368-84.369 84.368s-84.369-37.848-84.369-84.368c0-36.861 23.771-68.255 56.78-79.713 5.651 27.824 30.3 48.831 59.767 48.831v-15c-22.451 0-41.183-16.176-45.185-37.482 4.241-.659 8.584-1.005 13.007-1.005 19.399 0 37.635 6.4 52.736 18.509l9.384-11.703c-17.538-14.062-39.599-21.806-62.12-21.806-54.792 0-99.369 44.577-99.369 99.369s44.577 99.368 99.369 99.368 99.369-44.576 99.369-99.368c0-24.532-9.014-48.091-25.383-66.337z"/><path id="XMLID_472_" d="m354.37 340.005c12.262 0 23.928-4.645 32.849-13.078l-10.305-10.9c-6.125 5.79-14.131 8.979-22.544 8.979s-16.42-3.188-22.544-8.979l-10.305 10.9c8.921 8.433 20.587 13.078 32.849 13.078z"/><path id="XMLID_473_" d="m324.37 278.417h15v15h-15z"/><path id="XMLID_474_" d="m369.37 278.417h15v15h-15z"/><path id="XMLID_477_" d="m279.37 191.648 65.314-65.313c6.74-6.74 10.452-15.701 10.452-25.233s-3.711-18.493-10.452-25.233c-6.74-6.739-15.701-10.451-25.233-10.451s-18.493 3.712-25.232 10.451l-14.849 14.85-14.849-14.849c-6.74-6.74-15.701-10.452-25.232-10.452s-18.493 3.712-25.233 10.451c-13.914 13.914-13.914 36.553 0 50.467zm-54.708-105.172c3.907-3.907 9.101-6.059 14.626-6.059s10.719 2.151 14.626 6.059l25.455 25.455 25.455-25.455v-.001c3.907-3.906 9.101-6.058 14.626-6.058s10.72 2.151 14.626 6.059c8.065 8.064 8.065 21.188 0 29.252l-54.708 54.708-54.708-54.708c-3.907-3.906-6.058-9.101-6.058-14.626s2.153-10.72 6.06-14.626z"/></g></g></svg>